<svg width="24" height="24" viewBox="0 0 24 24" fill="none" xmlns="http://www.w3.org/2000/svg">
 <path d="M3 6.5C3 6.22386 3.22386 6 3.5 6H20.5C20.7761 6 21 6.22386 21 6.5C21 6.77614 20.7761 7 20.5 7H3.5C3.22386 7 3 6.77614 3 6.5Z" fill="#213f7d" stroke="#213f7d" stroke-width="2" stroke-linecap="round" stroke-linejoin="round"/>
 <path d="M3 12.5C3 12.2239 3.22386 12 3.5 12H20.5C20.7761 12 21 12.2239 21 12.5C21 12.7761 20.7761 13 20.5 13H3.5C3.22386 13 3 12.7761 3 12.5Z" fill="#213f7d" stroke="#213f7d" stroke-width="2" stroke-linecap="round" stroke-linejoin="round"/>
 <path d="M3 18.5C3 18.2239 3.22386 18 3.5 18H20.5C20.7761 18 21 18.2239 21 18.5C21 18.7761 20.7761 19 20.5 19H3.5C3.22386 19 3 18.7761 3 18.5Z" fill="#213f7d" stroke="#213f7d" stroke-width="2" stroke-linecap="round" stroke-linejoin="round"/>
</svg>